<svg width="40" height="40" viewBox="0 0 40 40" fill="none" xmlns="http://www.w3.org/2000/svg">
<mask id="path-1-inside-1_3560_4503" fill="white">
<path d="M0 0H40V40H6C2.68629 40 0 37.3137 0 34V0Z"/>
</mask>
<path d="M0 0H40V40H6C2.68629 40 0 37.3137 0 34V0Z" fill="white"/>
<g clip-path="url(#clip0_3560_4503)">
<path d="M26.6 14.4H22.9V12.5C22.9 12.3674 22.8473 12.2402 22.7536 12.1464C22.6598 12.0527 22.5326 12 22.4 12H17.6C17.4674 12 17.3402 12.0527 17.2464 12.1464C17.1527 12.2402 17.1 12.3674 17.1 12.5V14.4H13.4C13.2674 14.4 13.1402 14.4527 13.0464 14.5464C12.9527 14.6402 12.9 14.7674 12.9 14.9C12.9 15.0326 12.9527 15.1598 13.0464 15.2536C13.1402 15.3473 13.2674 15.4 13.4 15.4H26.6C26.7326 15.4 26.8598 15.3473 26.9536 15.2536C27.0473 15.1598 27.1 15.0326 27.1 14.9C27.1 14.7674 27.0473 14.6402 26.9536 14.5464C26.8598 14.4527 26.7326 14.4 26.6 14.4ZM18.1 13H21.9V14.4H18.1V13Z" fill="#6B7280"/>
<path d="M18.7 25.1V17.9C18.7 17.7674 18.6473 17.6402 18.5536 17.5465C18.4598 17.4527 18.3326 17.4 18.2 17.4C18.0674 17.4 17.9402 17.4527 17.8464 17.5465C17.7527 17.6402 17.7 17.7674 17.7 17.9V25.1C17.7 25.2326 17.7527 25.3598 17.8464 25.4536C17.9402 25.5473 18.0674 25.6 18.2 25.6C18.3326 25.6 18.4598 25.5473 18.5536 25.4536C18.6473 25.3598 18.7 25.2326 18.7 25.1Z" fill="#6B7280"/>
<path d="M22.3 25.1V17.9C22.3 17.7674 22.2473 17.6402 22.1536 17.5465C22.0598 17.4527 21.9326 17.4 21.8 17.4C21.6674 17.4 21.5402 17.4527 21.4464 17.5465C21.3527 17.6402 21.3 17.7674 21.3 17.9V25.1C21.3 25.2326 21.3527 25.3598 21.4464 25.4536C21.5402 25.5473 21.6674 25.6 21.8 25.6C21.9326 25.6 22.0598 25.5473 22.1536 25.4536C22.2473 25.3598 22.3 25.2326 22.3 25.1Z" fill="#6B7280"/>
<path d="M25.1 16.2C24.9674 16.2 24.8402 16.2526 24.7464 16.3464C24.6527 16.4402 24.6 16.5673 24.6 16.7V25.7C24.6 25.8326 24.6527 25.9597 24.7464 26.0535C24.8402 26.1473 24.9674 26.2 25.1 26.2C25.2326 26.2 25.3598 26.1473 25.4536 26.0535C25.5473 25.9597 25.6 25.8326 25.6 25.7V16.7C25.6 16.5673 25.5473 16.4402 25.4536 16.3464C25.3598 16.2526 25.2326 16.2 25.1 16.2Z" fill="#6B7280"/>
<path d="M23.3 27H15.4V16.7C15.4 16.5673 15.3473 16.4402 15.2536 16.3464C15.1598 16.2526 15.0326 16.2 14.9 16.2C14.7674 16.2 14.6402 16.2526 14.5464 16.3464C14.4527 16.4402 14.4 16.5673 14.4 16.7V27.5C14.4 27.6326 14.4527 27.7597 14.5464 27.8535C14.6402 27.9473 14.7674 28 14.9 28H23.3C23.4326 28 23.5598 27.9473 23.6536 27.8535C23.7473 27.7597 23.8 27.6326 23.8 27.5C23.8 27.3673 23.7473 27.2402 23.6536 27.1464C23.5598 27.0526 23.4326 27 23.3 27Z" fill="#6B7280"/>
</g>
<path d="M0 0H40H0ZM40 41H6C2.13401 41 -1 37.866 -1 34H1C1 36.7614 3.23858 39 6 39H40V41ZM6 41C2.13401 41 -1 37.866 -1 34V0H1V34C1 36.7614 3.23858 39 6 39V41ZM40 0V40V0Z" fill="#E5E7EB" mask="url(#path-1-inside-1_3560_4503)"/>
<defs>
<clipPath id="clip0_3560_4503">
<rect width="16" height="16" fill="white" transform="translate(12 12)"/>
</clipPath>
</defs>
</svg>
